<svg xmlns="http://www.w3.org/2000/svg" width="17" height="18" viewBox="0 0 17 18"><g><g><path fill="#51b6bb" d="M17 17.494a.263.263 0 0 1-.085.198.314.314 0 0 1-.215.083H8.81a.313.313 0 0 1-.213-.083.263.263 0 0 1-.085-.198c.064-2.39.879-4.511 2.178-5.678a.305.305 0 0 1 .116-.064v-.793c0-.152.134-.275.3-.275h3.3c.165 0 .3.123.3.275v.793a.304.304 0 0 1 .115.064c1.3 1.166 2.114 3.289 2.179 5.678zM10.904.488c-.211.733-.337 1.868-.458 2.967-.113 1.026-.23 2.087-.421 2.848l-.013.05c-.028.111-.056.224-.086.332a8.96 8.96 0 0 1-.023.083.414.414 0 0 1-.33.284 4.398 4.398 0 0 1-.424.053c-.313.025-.646.02-.99-.016.32.144.668.249 1.026.307.125.02.232.09.294.19.063.1.073.22.029.33-.201.492-.441.979-.715 1.446-.423.723-.801 1.242-1.227 1.682-.725.749-1.705 1.385-2.997 1.946-.189.082-.396.168-.65.27 0 0-3.59 5.123-3.875 4.72-.53-.753 3.469-5.977 4.347-7.67.244-.471.507-.95.76-1.414l.005-.007c.41-.747 1.382-2.693 1.392-2.712.45-.992.914-2.015 1.457-2.997-.899.78-1.583 1.76-2.143 2.639-.83 1.305-1.535 2.692-2.157 3.915l-.274.539-.035.068-1.098 2.157a.431.431 0 0 1-.468.214.4.4 0 0 1-.338-.365l-.016-.327c-.039-.811-.079-1.65-.013-2.477a8.708 8.708 0 0 1 .388-2.008c.163-.5.389-1 .69-1.53a.429.429 0 0 1 .376-.21h.01a.43.43 0 0 1 .375.228c.136.27.244.57.323.895.061-.46.023-.94-.114-1.39a2.801 2.801 0 0 0-.166-.42.363.363 0 0 1 .042-.39 12.945 12.945 0 0 1 3.065-2.91A13.265 13.265 0 0 1 10.374.016a.462.462 0 0 1 .415.094c.11.097.154.242.115.378z"/></g></g></svg>