<svg xmlns="http://www.w3.org/2000/svg" width="20" height="20" viewBox="0 0 20 20"><g><g><path fill="#51b6bb" d="M13.575 2.838v-1.45c0-.767.63-1.387 1.407-1.387.78 0 1.41.62 1.41 1.387v1.45c0 .767-.63 1.384-1.41 1.384a1.393 1.393 0 0 1-1.407-1.384zm6.431 17.156l-1.427.004H-.007V2.365l2.861.036v.705c0 1.164.96 2.114 2.143 2.114 1.184 0 2.145-.95 2.145-2.113v-.706h5.722v.706c0 1.163.958 2.113 2.143 2.113 1.184 0 2.145-.95 2.145-2.113v-.706h2.835zM18.58 7.33H1.423v11.264H18.58zM3.568 2.838v-1.45c0-.767.63-1.387 1.407-1.387.78 0 1.408.62 1.408 1.387v1.45c0 .767-.629 1.384-1.408 1.384a1.394 1.394 0 0 1-1.407-1.384zm3.58 6.003h2.251V10.8H7.147zm3.642 0h2.255V10.8H10.79zm3.378 0h2.252V10.8h-2.252zm-7.02 3.252h2.251v1.957H7.147zm3.642 0h2.255v1.957H10.79zm3.378 0h2.252v1.957h-2.252zm-7.02 3.317h2.251v1.957H7.147zm-3.58-3.317h2.25v1.957h-2.25zm0 3.317h2.25v1.957h-2.25zm7.222 0h2.255v1.957H10.79zm3.378 0h2.252v1.957h-2.252z"/></g></g></svg>