<svg xmlns="http://www.w3.org/2000/svg" width="11" height="16" viewBox="0 0 11 16"><g><g><path fill="#51b6bb" d="M2.357 8V3.2C2.357 1.434 3.767 0 5.5 0c1.733 0 3.143 1.435 3.143 3.2V8c0 1.764-1.41 3.2-3.143 3.2-1.734 0-3.143-1.436-3.143-3.2zm3.929 5.535v.865h2.357c.434 0 .785.358.785.8 0 .442-.351.8-.785.8H2.357a.792.792 0 0 1-.786-.8c0-.442.351-.8.786-.8h2.357v-.865C2.053 13.145 0 10.815 0 8V6.4c0-.442.35-.8.786-.8.434 0 .785.358.785.8V8c0 2.205 1.763 4 3.929 4s3.928-1.795 3.928-4V6.4c0-.442.352-.8.786-.8.434 0 .786.358.786.8V8c0 2.815-2.053 5.145-4.714 5.535z"/></g></g></svg>