<svg xmlns="http://www.w3.org/2000/svg" width="15" height="14" viewBox="0 0 15 14"><g><g><path fill="#51b6bb" d="M1.557 10.297a1.918 1.918 0 0 1-.609-1.412c0-.781.446-1.449 1.074-1.724-.933-.01-1.69-.838-1.69-1.857 0-.582.252-1.096.637-1.438L3.22 0h8.734l2.476 3.296v1.112h-.984l.937 1.91v.707H15v.827h-.57v2.066H15v.827h-.948v.362h-.79v2.066h.79V14H1.707C.766 14 0 13.165 0 12.14c0-.97.687-1.76 1.557-1.843zm.482-3.96h10.843v-1.93H1.575c-.288.178-.484.511-.484.897 0 .57.425 1.033.948 1.033zm-.332 2.548c0 .57.425 1.033.948 1.033h11.017V7.852H2.655c-.523 0-.948.463-.948 1.033zM.759 12.14c0 .57.425 1.033.948 1.033h10.795v-2.066H1.707c-.523 0-.948.463-.948 1.033z"/></g></g></svg>